<svg xmlns="http://www.w3.org/2000/svg" viewBox="0 0 49.62 89.02"><defs><style>.cls-1{fill:#fff;}</style></defs><title>svg1</title><g id="Layer_2" data-name="Layer 2"><g id="Layer_1-2" data-name="Layer 1"><path class="cls-1" d="M43.27,38H28.77V17.22c0-5.11,2.63-8,7.87-8h4A10.14,10.14,0,0,0,27.49.47q-7.08,3.78-7.07,15.05V38h-.57Q8.57,38,8.57,26.5V0H0V27A29.16,29.16,0,0,0,1.57,37.06a.8.8,0,0,1-.76,1.07h0a.81.81,0,0,0-.81.81V62.37C0,80.16,12.48,89,24.81,89s24.81-8.86,24.81-26.65V48.62h0V44.33A6.34,6.34,0,0,0,43.27,38ZM41,61.66C41,72.86,33,78.32,24.81,78.32S8.58,72.86,8.58,61.66v-13H41Z"/><path class="cls-1" d="M38.31,16.66,28.77,28,20.42,38V10.14a10.13,10.13,0,0,1,20.22-.93A10.17,10.17,0,0,1,38.31,16.66Z"/></g></g></svg>